<?xml version="1.0" encoding="utf-8"?>
<!-- Generator: Adobe Illustrator 25.2.0, SVG Export Plug-In . SVG Version: 6.00 Build 0)  -->
<svg version="1.1" id="レイヤー_1" xmlns="http://www.w3.org/2000/svg" xmlns:xlink="http://www.w3.org/1999/xlink" x="0px"
	 y="0px" viewBox="0 0 350 350" style="enable-background:new 0 0 350 350;" xml:space="preserve">
<style type="text/css">
	.st0{fill:#CEE9E9;}
	.st1{fill:#E1F0EF;}
	.st2{fill:#9CD0D8;}
	.st3{fill:#E0EEED;}
	.st4{opacity:0.6;fill:#EBCA20;}
	.st5{fill:#2C3249;}
</style>
<path class="st0" d="M305,325H45c-11.05,0-20-8.95-20-20V45c0-11.05,8.95-20,20-20h260c11.05,0,20,8.95,20,20v260
	C325,316.05,316.05,325,305,325z"/>
<g>
	<path class="st1" d="M25,305c0,11.05,8.95,20,20,20h226.48L25,78.52V305z"/>
</g>
<path class="st2" d="M170,43.78L88.06,91.09c-3.09,1.79-5,5.09-5,8.66l0,94.62c0,3.57,1.91,6.87,5,8.66L170,250.34
	c3.09,1.79,6.91,1.79,10,0l81.94-47.31c3.09-1.79,5-5.09,5-8.66l0-94.62c0-3.57-1.91-6.87-5-8.66L180,43.78
	C176.91,42,173.09,42,170,43.78z"/>
<path class="st3" d="M170,68.45l-48.88,28.22c-3.09,1.79-5,5.09-5,8.66l0,56.44c0,3.57,1.91,6.87,5,8.66L170,198.65
	c3.09,1.79,6.91,1.79,10,0l48.88-28.22c3.09-1.79,5-5.09,5-8.66l0-56.44c0-3.57-1.91-6.87-5-8.66L180,68.45
	C176.91,66.67,173.09,66.67,170,68.45z"/>
<path class="st4" d="M170,134.84l-32.42,18.72c-3.09,1.79-5,5.09-5,8.66l0,37.44c0,3.57,1.91,6.87,5,8.66L170,227.04
	c3.09,1.79,6.91,1.79,10,0l32.42-18.72c3.09-1.79,5-5.09,5-8.66l0-37.44c0-3.57-1.91-6.87-5-8.66L180,134.84
	C176.91,133.06,173.09,133.06,170,134.84z"/>
<g>
	<path class="st5" d="M87.55,266.01c-0.94-3.63-2.47-7.2-7.64-7.2c-4.29,0-5.77,3.13-5.77,6c0,3.79,2.42,5.72,6.98,8.08
		c6.6,3.41,9.46,5.94,9.46,11.16c0,5.77-5,10.17-12.1,10.17c-3.3,0-6.16-0.94-8.41-1.82c-0.44-1.54-1.1-5.28-1.48-8.25l1.71-0.44
		c1.1,3.68,3.52,8.47,9.24,8.47c3.96,0,6.38-2.75,6.38-6.32c0-4.23-2.25-5.94-7.09-8.58c-5.77-3.13-9.02-5.77-9.02-10.89
		c0-4.89,4.07-9.51,11.33-9.51c3.08,0,6.1,0.83,7.26,1.04c0.22,1.98,0.44,4.18,0.88,7.75L87.55,266.01z"/>
	<path class="st5" d="M94.81,293.39v-1.54c3.46-0.33,3.85-0.6,3.85-4.34v-11.33c0-3.41-0.17-3.63-3.46-4.18v-1.32
		c2.86-0.5,5.44-1.21,7.81-2.2c0,2.31,0,4.62,0,6.93v12.1c0,3.74,0.39,4.01,3.96,4.34v1.54H94.81z M100.53,263.09
		c-1.54,0-2.91-1.38-2.91-2.92c0-1.76,1.38-3.02,2.97-3.02c1.54,0,2.8,1.26,2.8,3.02C103.39,261.72,102.12,263.09,100.53,263.09z"/>
	<path class="st5" d="M139.96,293.39v-1.54c3.24-0.33,3.63-0.55,3.63-4.4v-9.18c0-3.9-1.32-6.38-4.73-6.38
		c-2.09,0-4.01,1.15-6.1,2.86c0.06,0.66,0.17,1.32,0.17,2.37v10.67c0,3.46,0.49,3.74,3.52,4.07v1.54h-11.77v-1.54
		c3.41-0.33,3.9-0.55,3.9-4.18v-9.46c0-4.07-1.26-6.32-4.62-6.32c-2.2,0-4.34,1.48-6.05,2.86v12.92c0,3.63,0.38,3.85,3.52,4.18v1.54
		H109.6v-1.54c3.63-0.33,3.96-0.55,3.96-4.18v-11.38c0-3.52-0.22-3.74-3.3-4.29v-1.37c2.58-0.39,5.17-1.1,7.64-2.2
		c0,1.32,0,3.13,0,4.45c1.15-0.88,2.31-1.81,4.07-2.86c1.38-0.88,2.58-1.43,4.34-1.43c2.64,0,4.89,1.65,5.99,4.51
		c1.54-1.21,2.97-2.15,4.34-3.08c1.21-0.77,2.75-1.43,4.34-1.43c4.29,0,6.93,3.08,6.93,8.47v10.61c0,3.68,0.33,3.85,3.46,4.18v1.54
		H139.96z"/>
	<path class="st5" d="M154.21,270.41c2.58-0.38,5.44-1.32,7.97-2.36c0,1.32,0,3.08,0,4.4c0.17-0.11,4.56-2.64,4.78-2.75
		c1.32-0.71,2.47-1.1,3.19-1.1c6.05,0,9.73,5.06,9.73,10.5c0,8.36-6.6,13.64-13.8,14.96c-1.65-0.06-3.13-0.55-3.9-0.99v7.42
		c0,4.07,0.44,4.4,4.67,4.79v1.54h-13.03v-1.54c3.57-0.39,4.01-0.66,4.01-4.34v-25.02c0-3.3-0.11-3.52-3.63-4.01V270.41z
		 M162.18,289.21c1.26,1.26,3.41,2.14,5.22,2.14c4.78,0,7.86-4.01,7.86-10.17c0-5.94-3.46-9.29-7.37-9.29
		c-1.92,0-4.23,1.26-5.72,2.36V289.21z"/>
	<path class="st5" d="M183.14,293.39v-1.54c3.52-0.33,3.96-0.6,3.96-4.23v-26.34c0-3.36-0.27-3.68-3.79-4.12v-1.43
		c2.97-0.33,6.38-1.21,8.14-1.87c0,2.58,0,5.22,0,7.81v25.96c0,3.63,0.33,3.9,3.9,4.23v1.54H183.14z"/>
	<path class="st5" d="M218.44,288.72c-3.52,4.4-7.37,5.33-9.13,5.33c-6.71,0-10.78-5.5-10.78-11.82c0-3.74,1.32-7.2,3.57-9.62
		c2.31-2.58,5.33-4.01,8.19-4.01c4.78,0,8.41,4.12,8.41,8.52c-0.06,1.1-0.22,1.59-1.1,1.81c-1.1,0.22-8.14,0.71-14.68,0.93
		c-0.17,7.37,4.34,10.39,8.25,10.39c2.25,0,4.34-0.93,6.38-2.8L218.44,288.72z M208.98,270.68c-2.53,0-5,2.36-5.77,6.82
		c3.08,0,6.16,0,9.4-0.17c0.99,0,1.32-0.28,1.32-1.1C213.99,273.32,212.06,270.68,208.98,270.68z"/>
	<path class="st5" d="M234.67,293.39h-12.65v-1.54c3.46-0.33,3.79-0.6,3.79-4.18v-11.44c0-3.63-0.22-3.79-3.41-4.18v-1.38
		c2.69-0.44,5.17-1.1,7.75-2.25c0,1.81,0,4.23,0,6.05c1.92-2.86,4.23-5.88,6.98-5.88c2.04,0,3.19,1.26,3.19,2.64
		c0,1.26-0.88,2.47-1.87,3.02c-0.55,0.33-0.99,0.28-1.43-0.11c-0.83-0.83-1.49-1.38-2.47-1.38c-1.16,0-3.19,1.7-4.4,4.51v10.34
		c0,3.63,0.27,3.9,4.51,4.23V293.39z"/>
	<path class="st5" d="M246.5,294.16c-1.98,0-3.35-1.43-3.35-3.52c0-1.98,1.38-3.52,3.35-3.52s3.46,1.54,3.46,3.52
		C249.96,292.73,248.47,294.16,246.5,294.16z"/>
	<path class="st5" d="M254.25,270.63c2.97-0.44,5.72-1.16,8.08-2.15c0,2.47,0,4.95,0,7.48v11.38c0,3.68-0.22,5.99-1.26,8.96
		c-1.92,5.5-5.33,9.62-6.6,10.72c-0.55,0.44-0.99,0.6-1.43,0.6c-0.82,0-2.03-1.16-2.03-2.47c0-0.71,0.22-1.04,0.88-1.26
		c2.03-0.55,3.46-1.1,4.23-2.09c0.66-0.77,1.1-1.98,1.43-3.85c0.33-2.31,0.44-5.61,0.44-10.67V276.4c0-3.68-0.28-3.9-3.74-4.4
		V270.63z M259.91,262.98c-1.54,0-2.8-1.32-2.8-2.8c0-1.7,1.26-2.91,2.86-2.91c1.48,0,2.69,1.21,2.69,2.91
		C262.66,261.66,261.45,262.98,259.91,262.98z"/>
	<path class="st5" d="M282.74,275.79c-0.99-3.19-2.42-5.39-5.77-5.39c-1.92,0-3.41,1.38-3.41,3.58c0,2.36,1.59,3.46,4.67,4.89
		c4.73,2.25,7.09,3.9,7.09,7.53c0,5.06-4.62,7.64-8.96,7.64c-2.86,0-5.39-0.88-6.54-1.54c-0.27-1.59-0.77-4.62-0.99-6.43l1.59-0.27
		c0.99,3.52,2.91,6.38,6.76,6.38c2.09,0,3.85-1.43,3.85-3.74c0-2.47-1.48-3.74-4.4-5.17c-3.85-1.87-6.98-3.63-6.98-7.59
		c0-4.01,3.41-7.09,8.58-7.09c2.31,0,4.18,0.55,5.28,0.71c0.17,1.32,0.55,4.78,0.83,6.1L282.74,275.79z"/>
</g>
<path class="st2" d="M173.5,52.64l-17.85,10.31c-0.93,0.54-1.5,1.53-1.5,2.6v20.61c0,1.07,0.57,2.06,1.5,2.6l17.85,10.31
	c0.93,0.54,2.07,0.54,3,0l17.85-10.31c0.93-0.54,1.5-1.53,1.5-2.6V65.54c0-1.07-0.57-2.06-1.5-2.6L176.5,52.64
	C175.57,52.1,174.43,52.1,173.5,52.64z"/>
</svg>
